<?xml version="1.0" encoding="utf-8"?>
<svg width="37.67025114044" height="10.11972511847" viewBox="0 0 37.67025114044 10.11972511847" xmlns="http://www.w3.org/2000/svg">
  <path stroke-width="0.05291666667" fill="none" stroke="black" stroke-linecap="round" d="M 0.0 0.0 L 29.21468335523 2.11773284871" />
  <path stroke-width="0.05291666667" fill="none" stroke="black" stroke-linecap="round" d="M 29.28295098472 0.70092623812 A 29.29133858268 29.29133858268 0 0 1 29.21468335523 2.11773284871" />
  <path stroke-width="0.05291666667" fill="none" stroke="black" stroke-linecap="round" d="M 29.28295098472 0.70092623812 A 0.71811023622 0.71811023622 0 0 1 30.00085558951 0.0" />
  <path stroke-width="0.05291666667" fill="none" stroke="black" stroke-linecap="round" d="M 31.96434741571 0.0 C 32.04225357784 -0.00509653785 32.12015973997 -0.0101930757 32.19787240957 -0.01889203417" />
  <path stroke-width="0.05291666667" fill="none" stroke="black" stroke-linecap="round" d="M 32.19787240957 -0.01889203417 C 32.27577697631 -0.02761247312 32.35348709375 -0.03995314568 32.43105854791 -0.0536033633" />
  <path stroke-width="0.05291666667" fill="none" stroke="black" stroke-linecap="round" d="M 32.43105854791 -0.0536033633 C 32.50891412945 -0.06730357869 32.58663003006 -0.08232294988 32.66418754126 -0.09883195735" />
  <path stroke-width="0.05291666667" fill="none" stroke="black" stroke-linecap="round" d="M 32.66418754126 -0.09883195735 C 32.74202335154 -0.11540020398 32.81969963368 -0.13346879659 32.89721735041 -0.15273409212" />
  <path stroke-width="0.05291666667" fill="none" stroke="black" stroke-linecap="round" d="M 32.89721735041 -0.15273409212 C 32.97501078954 -0.17206791229 33.05264453327 -0.19260696362 33.13011411862 -0.21426121954" />
  <path stroke-width="0.05291666667" fill="none" stroke="black" stroke-linecap="round" d="M 33.13011411862 -0.21426121954 C 33.20785714196 -0.23599190669 33.28543484605 -0.25884568482 33.36284420648 -0.2827210973" />
  <path stroke-width="0.05291666667" fill="none" stroke="black" stroke-linecap="round" d="M 33.36284420648 -0.2827210973 C 33.44052479527 -0.30668016489 33.51803585864 -0.33166803861 33.59537398051 -0.35761479389" />
  <path stroke-width="0.05291666667" fill="none" stroke="black" stroke-linecap="round" d="M 33.59537398051 -0.35761479389 C 33.67298114895 -0.38365181364 33.75041417052 -0.41065439814 33.82766974361 -0.43856304084" />
  <path stroke-width="0.05291666667" fill="none" stroke="black" stroke-linecap="round" d="M 33.82766974361 -0.43856304084 C 33.90519219002 -0.46656809177 33.98253595986 -0.49548547152 34.05969773101 -0.52526621385" />
  <path stroke-width="0.05291666667" fill="none" stroke="black" stroke-linecap="round" d="M 34.05969773101 -0.52526621385 C 34.13712420317 -0.55514911808 34.21436742581 -0.58590131851 34.29142410746 -0.61748083934" />
  <path stroke-width="0.05291666667" fill="none" stroke="black" stroke-linecap="round" d="M 34.29142410746 -0.61748083934 C 34.3687433148 -0.64916794896 34.44587470792 -0.6816880258 34.52281496876 -0.71500466265" />
  <path stroke-width="0.05291666667" fill="none" stroke="black" stroke-linecap="round" d="M 34.52281496876 -0.71500466265 C 34.60001557478 -0.74843403405 34.67702375285 -0.78266536527 34.75383634447 -0.81766668306" />
  <path stroke-width="0.05291666667" fill="none" stroke="black" stroke-linecap="round" d="M 34.75383634447 -0.81766668306 C 34.83090709475 -0.85278563641 34.90778094169 -0.88867976071 34.9844541984 -0.92532020705" />
  <path stroke-width="0.05291666667" fill="none" stroke="black" stroke-linecap="round" d="M 34.9844541984 -0.92532020705 C 35.06138341924 -0.96208297295 35.13811070833 -0.99959705223 35.21463443942 -1.03783785125" />
  <path stroke-width="0.05291666667" fill="none" stroke="black" stroke-linecap="round" d="M 35.21463443942 -1.03783785125 C 35.29141193664 -1.07620546347 35.36798452356 -1.1153046233 35.44434289446 -1.1551078164" />
  <path stroke-width="0.05291666667" fill="none" stroke="black" stroke-linecap="round" d="M 35.44434289446 -1.1551078164 C 35.52095281123 -1.19504213237 35.59734709829 -1.23568512783 35.67354542303 -1.2770311547" />
  <path stroke-width="0.05291666667" fill="none" stroke="black" stroke-linecap="round" d="M 35.67354542303 -1.2770311547 C 35.7499931205 -1.31851249389 35.82624357091 -1.36070147363 35.90220750321 -1.40351931095" />
  <path stroke-width="0.05291666667" fill="none" stroke="black" stroke-linecap="round" d="M 35.90220750321 -1.40351931095 C 35.97841842216 -1.44647636479 36.05434095682 -1.49006637217 36.13029579325 -1.53449348363" />
  <path stroke-width="0.05291666667" fill="none" stroke="black" stroke-linecap="round" d="M 36.13029579325 -1.53449348363 C 36.20649598927 -1.57906410956 36.28272869608 -1.62447725657 36.35777230828 -1.6698792593" />
  <path stroke-width="0.05291666667" fill="none" stroke="black" stroke-linecap="round" d="M 36.35777230828 -1.6698792593 C 36.43305677875 -1.71542698327 36.50714450938 -1.76096349131 36.58461620247 -1.80962046343" />
  <path stroke-width="0.05291666667" fill="none" stroke="black" stroke-linecap="round" d="M 36.58461620247 -1.80962046343 C 36.66233495956 -1.85843260689 36.74345929702 -1.91038514903 36.81074236087 -1.95362235366" />
  <path stroke-width="0.05291666667" fill="none" stroke="black" stroke-linecap="round" d="M 36.81074236087 -1.95362235366 C 36.87823863533 -1.99699657094 36.93180577508 -2.03160012783 37.03630571673 -2.10195983594" />
  <path stroke-width="0.05291666667" fill="none" stroke="black" stroke-linecap="round" d="M 37.03630571673 -2.10195983594 C 37.10808126008 -2.15028623881 37.20388484916 -2.21548095453 37.23930554561 -2.23960069693" />
  <path stroke-width="0.05291666667" fill="none" stroke="black" stroke-linecap="round" d="M 37.23930554561 -2.23960069693 C 37.25852269504 -2.25268662523 37.25996615223 -2.25368214344 37.26140960942 -2.25467766164" />
  <path stroke-width="0.05291666667" fill="none" stroke="black" stroke-linecap="round" d="M 37.6670432453 -3.11074089329 A 0.94488188976 0.94488188976 0 0 1 37.26140960942 -2.25467766164" />
  <path stroke-width="0.05291666667" fill="none" stroke="black" stroke-linecap="round" d="M 37.51461180999 -4.59747283785 A 37.7952755745 37.7952755745 0 0 1 37.6670432453 -3.11074089329" />
  <path stroke-width="0.05291666667" fill="none" stroke="black" stroke-linecap="round" d="M 36.9437028995 -5.35341325815 A 0.94488188976 0.94488188976 0 0 1 37.51461180999 -4.59747283785" />
  <path stroke-width="0.05291666667" fill="none" stroke="black" stroke-linecap="round" d="M 31.2993222015 -6.48628826363 C 31.37664171163 -6.49710668079 31.45396122175 -6.50792509796 31.53182227753 -6.51517677965" />
  <path stroke-width="0.05291666667" fill="none" stroke="black" stroke-linecap="round" d="M 31.53182227753 -6.51517677965 C 31.60987559687 -6.52244636803 31.68847313966 -6.52613158439 31.76720064036 -6.52850636315" />
  <path stroke-width="0.05291666667" fill="none" stroke="black" stroke-linecap="round" d="M 31.76720064036 -6.52850636315 C 31.84621650279 -6.53088984021 31.9253632769 -6.5319532624 32.00465723778 -6.5315258997" />
  <path stroke-width="0.05291666667" fill="none" stroke="black" stroke-linecap="round" d="M 32.00465723778 -6.5315258997 C 32.08423572864 -6.53109700351 32.16396246446 -6.5291666045 32.24377677192 -6.52603222373" />
  <path stroke-width="0.05291666667" fill="none" stroke="black" stroke-linecap="round" d="M 32.24377677192 -6.52603222373 C 32.32387497053 -6.5228866943 32.40406136485 -6.518528603 32.48431331636 -6.51304519774" />
  <path stroke-width="0.05291666667" fill="none" stroke="black" stroke-linecap="round" d="M 32.48431331636 -6.51304519774 C 32.56484852654 -6.50754243815 32.64544975751 -6.50090640674 32.72609345993 -6.49323583557" />
  <path stroke-width="0.05291666667" fill="none" stroke="black" stroke-linecap="round" d="M 32.72609345993 -6.49323583557 C 32.80701972327 -6.48553838811 32.88798875621 -6.47679913852 32.96898302446 -6.46708586337" />
  <path stroke-width="0.05291666667" fill="none" stroke="black" stroke-linecap="round" d="M 32.96898302446 -6.46708586337 C 33.05025905841 -6.45733879735 33.13156050356 -6.44661091703 33.21287205175 -6.43495982094" />
  <path stroke-width="0.05291666667" fill="none" stroke="black" stroke-linecap="round" d="M 33.21287205175 -6.43495982094 C 33.29446448433 -6.42326847706 33.37606708987 -6.41064752802 33.45766667901 -6.39714424721" />
  <path stroke-width="0.05291666667" fill="none" stroke="black" stroke-linecap="round" d="M 33.45766667901 -6.39714424721 C 33.53954619295 -6.38359464383 33.62142266977 -6.36915664466 33.70328436862 -6.3538706843" />
  <path stroke-width="0.05291666667" fill="none" stroke="black" stroke-linecap="round" d="M 33.70328436862 -6.3538706843 C 33.78542496345 -6.33853264595 33.86755067944 -6.3223408587 33.94965087973 -6.30533029898" />
  <path stroke-width="0.05291666667" fill="none" stroke="black" stroke-linecap="round" d="M 33.94965087973 -6.30533029898 C 34.03202888505 -6.2882621801 34.11438120169 -6.27036973836 34.19669824876 -6.2516836409" />
  <path stroke-width="0.05291666667" fill="none" stroke="black" stroke-linecap="round" d="M 34.19669824876 -6.2516836409 C 34.27929195437 -6.23293474151 34.36185015295 -6.21338684266 34.44436338022 -6.19306744486" />
  <path stroke-width="0.05291666667" fill="none" stroke="black" stroke-linecap="round" d="M 34.44436338022 -6.19306744486 C 34.52715206765 -6.17268021329 34.60989548301 -6.15151632307 34.69258704329 -6.12959952616" />
  <path stroke-width="0.05291666667" fill="none" stroke="black" stroke-linecap="round" d="M 34.69258704329 -6.12959952616 C 34.77555282332 -6.10761004929 34.85846640377 -6.0848626639 34.94131308928 -6.06138242354" />
  <path stroke-width="0.05291666667" fill="none" stroke="black" stroke-linecap="round" d="M 34.94131308928 -6.06138242354 C 35.02443269499 -6.03782483268 35.10748496429 -6.01352955043 35.19048800926 -5.98850609829" />
  <path stroke-width="0.05291666667" fill="none" stroke="black" stroke-linecap="round" d="M 35.19048800926 -5.98850609829 C 35.27376269664 -5.96340075241 35.35698783697 -5.93756246272 35.44006002969 -5.91105025795" />
  <path stroke-width="0.05291666667" fill="none" stroke="black" stroke-linecap="round" d="M 35.44006002969 -5.91105025795 C 35.52340232061 -5.88445185227 35.60659066773 -5.85717514211 35.68998051189 -5.82908529874" />
  <path stroke-width="0.05291666667" fill="none" stroke="black" stroke-linecap="round" d="M 35.68998051189 -5.82908529874 C 35.77363973321 -5.80090471577 35.85750175549 -5.77190573772 35.94019716111 -5.74267637793" />
  <path stroke-width="0.05291666667" fill="none" stroke="black" stroke-linecap="round" d="M 35.94019716111 -5.74267637793 C 36.02315798403 -5.71335320426 36.10494468957 -5.68379816761 36.19067816615 -5.65187427125" />
  <path stroke-width="0.05291666667" fill="none" stroke="black" stroke-linecap="round" d="M 36.19067816615 -5.65187427125 C 36.27668505428 -5.61984856679 36.36666392679 -5.58543886953 36.44132095751 -5.55675447815" />
  <path stroke-width="0.05291666667" fill="none" stroke="black" stroke-linecap="round" d="M 36.44132095751 -5.55675447815 C 36.51621456592 -5.52797918995 36.57568907315 -5.50496555051 36.69229244515 -5.45727509059" />
  <path stroke-width="0.05291666667" fill="none" stroke="black" stroke-linecap="round" d="M 36.69229244515 -5.45727509059 C 36.77238120166 -5.42451900844 36.87942105696 -5.38012139572 36.91899925878 -5.36369112938" />
  <path stroke-width="0.05291666667" fill="none" stroke="black" stroke-linecap="round" d="M 36.91899925878 -5.36369112938 C 36.94047202173 -5.35477705047 36.94208746061 -5.35409515431 36.9437028995 -5.35341325815" />
  <path stroke-width="0.05291666667" fill="none" stroke="black" stroke-linecap="round" d="M 29.37668125066 -6.08785141077 A 0.71811023622 0.71811023622 0 0 1 28.53147903784 -6.62851566176" />
  <path stroke-width="0.05291666667" fill="none" stroke="black" stroke-linecap="round" d="M 28.17712965995 -8.00199225764 A 29.29133858265 29.29133858265 0 0 1 28.53147903784 -6.62851566176" />
  <path stroke-width="0.05291666667" fill="none" stroke="black" stroke-linecap="round" d="M 0.0 0.0 L 28.17712965995 -8.00199225764" />
  <path stroke-width="0.05291666667" fill="none" stroke="black" stroke-linecap="round" d="M 29.37668125066 -6.08785141077 L 31.2993222015 -6.48628826363" />
  <path stroke-width="0.05291666667" fill="none" stroke="black" stroke-linecap="round" d="M 30.00085558951 0.0 L 31.96434741571 0.0" />
</svg>